<?xml version="1.0" encoding="utf-8"?>
<!-- Generator: Adobe Illustrator 22.1.0, SVG Export Plug-In . SVG Version: 6.00 Build 0)  -->
<svg version="1.1" id="Layer_1" xmlns="http://www.w3.org/2000/svg" xmlns:xlink="http://www.w3.org/1999/xlink" x="0px" y="0px"
	 viewBox="0 0 54.5 50" style="enable-background:new 0 0 54.5 50;" xml:space="preserve">
<style type="text/css">
	.st0{fill:none;}
	.st1{opacity:0.9;fill:#FFFFFF;enable-background:new    ;}
	.st2{fill:#FFFFFF;}
</style>
<title>aj-logo</title>
<path class="st0" d="M35,22.8v-3.5c-1.7,1.7-3.1,3-4,3.9c-0.7,0.7-1.6,1.2-2.6,1.3c-1.2,0-1.9-0.9-1.9-2.6s0.7-4.8,2.1-9.3l2.7-9
	h-1.7L23.3,7c-0.8-2.2-3-3.6-5.3-3.5c-2,0-4.3,0.9-7,2.6c-2.6,1.7-4.9,4-6.5,6.7C2.9,15.5,2,18.5,2,21.6c-0.1,2.2,0.6,4.4,1.9,6.2
	c1,1.5,2.7,2.5,4.6,2.5c2,0,3.9-0.8,5.3-2.1c2.2-1.9,4.1-4.1,5.6-6.4c-0.2,5.7,1.3,8.5,4.6,8.5c1.4-0.1,2.8-0.6,4-1.4
	C30.5,27,32.8,25,35,22.8z M18.4,19.3c-1.8,3.5-3.7,5.2-5.8,5.2c-0.8,0-1.6-0.4-2.1-1c-0.6-0.8-0.9-1.7-0.8-2.7
	c0.1-3.4,1.1-6.6,2.7-9.6C14.3,7.8,16.3,6,18.3,6c0.8,0,1.6,0.4,2,1c0.6,0.8,0.8,1.7,0.8,2.7C21,13.1,20.1,16.4,18.4,19.3z"/>
<path class="st1" d="M27.5,36.5c0-7.7,6.3-14,14-14c3.1,0,6,1,8.5,2.9c0-0.1,0-0.3,0-0.4C50,11.2,38.8,0,25,0S0,11.2,0,25
	s11.2,25,25,25c3.1,0,6.1-0.6,9-1.7C30,45.8,27.5,41.3,27.5,36.5z M24,30.3c-3.2,0-4.7-2.8-4.6-8.5c-1.6,2.4-3.5,4.6-5.6,6.5
	c-1.5,1.3-3.4,2-5.3,2.1c-1.8,0-3.6-1-4.6-2.5c-1.3-1.8-2-4-1.9-6.2c0-3.1,0.9-6.1,2.5-8.7c1.6-2.7,3.8-5,6.5-6.7
	c2.6-1.7,5-2.6,7-2.6c2.3-0.1,4.5,1.3,5.3,3.5l6.3-3.5h1.7l-2.7,9c-1.4,4.5-2.1,7.6-2.1,9.3c0,1.8,0.6,2.6,1.9,2.6
	c1-0.1,2-0.6,2.7-1.3c1-0.8,2.3-2.1,4-3.9v3.5c-2.2,2.2-4.5,4.2-7,6.1C26.8,29.7,25.4,30.2,24,30.3z"/>
<path class="st1" d="M18.3,6c-2,0-4,1.7-5.8,5.2c-1.7,2.9-2.6,6.2-2.7,9.6c0,1,0.2,1.9,0.8,2.7c0.5,0.6,1.3,1,2.1,1
	c2,0,4-1.7,5.8-5.2C20,16.3,21,13,21.1,9.7c0.1-1-0.2-1.9-0.8-2.7C19.9,6.4,19.1,6,18.3,6z"/>
<path class="st2" d="M49.9,26.6c-5.5-4.7-13.7-4-18.3,1.4s-4,13.7,1.4,18.3s13.7,4,18.3-1.4c2-2.4,3.1-5.4,3.1-8.5
	C54.5,32.7,52.8,29.1,49.9,26.6z"/>
</svg>
